<?xml version="1.0" encoding="UTF-8" standalone="no"?>
<svg width="416.85605mm" height="86.072472mm" viewBox="0 0 416.85605 86.072475" version="1.1" id="svg8">
   <defs id="defs2">
      <linearGradient id="linearGradient2430">
         <stop offset="0" id="stop2428" />
      </linearGradient>
      <linearGradient id="linearGradient940">
         <stop offset="0" id="stop936" />
         <stop offset="1" id="stop938" />
      </linearGradient>
      <linearGradient id="linearGradient942" x1="-84.982811" y1="270.34988" x2="-32.041924" y2="270.34988" gradientUnits="userSpaceOnUse" />
   </defs>

   <g id="layer1" transform="translate(-308.52061,-405.6665)">
      <flowRoot id="flowRoot994">
         <rect id="rect998" width="791.2525" height="89.095451" x="101.82338" y="869.37549" />
         <flowPara id="flowPara1000" />
      </flowRoot>
      <g transform="translate(393.50353,192.61667)" id="g1129">
         <g id="g1107">
            <path d="m -77.392388,234.84753 35.404364,-21.7977 6.65557,4.07053 -35.648897,21.6686 z" id="path1095" />
            <g id="g1105">
               <path id="path1097" transform="scale(0.26458333)" d="m -320.48047,913.04883 -0.71484,217.49217 h 30.10156 v -111.4961 l 60.57617,37.2403 v -28.4161 l -60.57617,-37.24215 v -59.51172 z m 131.68555,80.95898 v 59.51169 l -35.35742,-21.7383 v 28.418 l 35.35742,21.7363 v 48.6055 h 30.09765 v -30.0996 l 37.57422,23.1016 0.0195,-28.4063 -37.59179,-23.1113 v -59.5117 z" />
               <path id="path1099" d="m -78.618436,235.65079 36.630412,22.51995 36.9538601,-22.51995 6.1,3.73075 -43.0538601,26.39597 -42.8058,-26.3165 z" />
               <path id="path1101" d="m 1.0658361,239.54018 v 33.53173 l -7.96415,4.85341 v -33.53173 z" />
               <path id="path1103" d="m -58.952332,246.18426 6.167609,3.79178 35.696419,-21.69756 -6.18372,-3.78196 z" />
            </g>
         </g>
         <g transform="matrix(1.6780173,0,0,1.6780173,-19.032007,-170.66392)" id="g1127">
            <g aria-label="HOSPITAL MATERNIDADE" transform="matrix(0.2545313,0,0,0.2545313,-2.522376,14.772375)" id="flowRoot1115">
               <path d="m 156.96289,935.86069 h -10.22461 v -17.8125 H 131.5918 v 17.8125 h -10.28321 v -42.65625 h 10.28321 v 16.93359 h 15.14648 v -16.93359 h 10.22461 z" id="path1131" />
               <path d="m 199.61914,915.41147 q 0,4.89258 -1.37695,8.78906 -1.37696,3.89648 -3.86719,6.62109 -2.46094,2.72461 -5.88867,4.18946 -3.39844,1.43554 -7.47071,1.43554 -4.13085,0 -7.58789,-1.43554 -3.42773,-1.46485 -5.91796,-4.18946 -2.46094,-2.72461 -3.8379,-6.62109 -1.37695,-3.89648 -1.37695,-8.78906 v -1.72852 q 0,-4.89258 1.34766,-8.78906 1.37695,-3.89649 3.83789,-6.62109 2.49023,-2.72461 5.91797,-4.18946 3.42773,-1.46484 7.55859,-1.46484 4.07227,0 7.5,1.46484 3.42774,1.46485 5.88867,4.18946 2.49024,2.7246 3.86719,6.62109 1.40625,3.89648 1.40625,8.78906 z m -10.45898,-1.78711 q 0,-6.35742 -2.13868,-9.63867 -2.10937,-3.31055 -6.06445,-3.31055 -4.13086,0 -6.18164,3.31055 -2.02148,3.28125 -2.02148,9.63867 v 1.78711 q 0,6.26953 2.08007,9.63867 2.08008,3.36914 6.18164,3.36914 3.92579,0 6.03516,-3.33984 2.10938,-3.36914 2.10938,-9.66797 z" id="path1133" />
               <path d="m 226.98242,924.5228 q 0,-0.9961 -0.29297,-1.78711 -0.26367,-0.82032 -1.08398,-1.52344 -0.82031,-0.73242 -2.31445,-1.43555 -1.46485,-0.70312 -3.86719,-1.49414 -2.8125,-0.9375 -5.41992,-2.10937 -2.60743,-1.17188 -4.62891,-2.78321 -2.02148,-1.61133 -3.25195,-3.75 -1.20118,-2.16797 -1.20118,-5.03906 0,-2.75391 1.23047,-4.95117 1.23047,-2.22656 3.42774,-3.7793 2.19726,-1.55273 5.18554,-2.40234 3.01758,-0.84961 6.5625,-0.84961 3.48633,0 6.41602,0.9375 2.92969,0.9375 5.03906,2.66601 2.10938,1.72852 3.28125,4.18946 1.20117,2.43164 1.20117,5.44922 h -10.2539 q 0,-1.20118 -0.38086,-2.19727 -0.35156,-1.02539 -1.11328,-1.72852 -0.73242,-0.73242 -1.84571,-1.14257 -1.08398,-0.41016 -2.57812,-0.41016 -1.46484,0 -2.57813,0.35156 -1.11328,0.32227 -1.875,0.9375 -0.73242,0.58594 -1.11328,1.37696 -0.38086,0.76171 -0.38086,1.64062 0,0.9668 0.52735,1.75781 0.55664,0.76172 1.55273,1.46485 1.02539,0.67383 2.46094,1.28906 1.46484,0.58594 3.28125,1.17187 3.39844,1.08399 6.06445,2.40235 2.66602,1.31836 4.48242,3.01758 1.84571,1.69922 2.78321,3.83789 0.96679,2.13867 0.96679,4.83398 0,2.8711 -1.14257,5.12695 -1.11328,2.22657 -3.19336,3.75 -2.05078,1.52344 -4.98047,2.31446 -2.90039,0.79101 -6.47461,0.79101 -2.19727,0 -4.36524,-0.38086 -2.16796,-0.35156 -4.16015,-1.11328 -1.96289,-0.76172 -3.69141,-1.90429 -1.69922,-1.17188 -2.95898,-2.78321 -1.23047,-1.61133 -1.96289,-3.66211 -0.70313,-2.05078 -0.70313,-4.57031 h 10.3125 q 0,1.875 0.49805,3.16406 0.49805,1.25977 1.46484,2.05078 0.9668,0.79102 2.34375,1.14258 1.40625,0.32227 3.22266,0.32227 1.46484,0 2.49023,-0.32227 1.05469,-0.35156 1.72852,-0.9082 0.67383,-0.58594 0.9668,-1.34766 0.32226,-0.76172 0.32226,-1.61132 z" id="path1135" />
               <path d="m 252.88086,921.38803 v 14.47266 h -10.2832 v -42.65625 h 17.02148 q 3.83789,0 6.91406,1.08398 3.07617,1.08398 5.21485,3.01758 2.13867,1.93359 3.28125,4.59961 1.14257,2.63672 1.14257,5.77148 0,3.10547 -1.14257,5.625 -1.14258,2.51953 -3.28125,4.33594 -2.13868,1.78711 -5.21485,2.7832 -3.07617,0.9668 -6.91406,0.9668 z m 0,-7.93945 h 6.73828 q 1.61133,0 2.75391,-0.41016 1.17187,-0.43945 1.90429,-1.20117 0.76172,-0.76172 1.11328,-1.81641 0.35157,-1.05469 0.35157,-2.28515 0,-1.31836 -0.35157,-2.49024 -0.35156,-1.20117 -1.11328,-2.10937 -0.73242,-0.90821 -1.90429,-1.43555 -1.14258,-0.55664 -2.75391,-0.55664 h -6.73828 z" id="path1137" />
               <path d="m 292.57812,935.86069 h -10.2539 v -42.65625 h 10.2539 z" id="path1139" />
               <path d="m 333.27148,901.14389 h -12.80273 v 34.7168 h -10.2832 v -34.7168 h -12.56836 v -7.93945 h 35.65429 z" id="path1141" />
               <path d="m 358.34961,927.89194 h -14.0918 l -2.46094,7.96875 h -10.98632 l 15.64453,-42.65625 h 9.66797 l 15.76172,42.65625 h -11.04493 z m -11.63086,-7.93946 h 9.16992 l -4.59961,-14.79492 z" id="path1143" />
               <path d="m 385.30273,927.95053 h 17.90039 v 7.91016 h -28.18359 v -42.65625 h 10.2832 z" id="path1145" />
               <path d="m 436.10352,893.20444 9.52148,29.67773 9.49219,-29.67773 h 13.53515 v 42.65625 h -10.3125 v -9.96094 l 0.9961,-20.39063 -10.3125,30.35157 h -6.79688 l -10.34179,-30.38086 0.99609,20.41992 v 9.96094 h -10.2832 v -42.65625 z" id="path1147" />
               <path d="m 499.44336,927.89194 h -14.0918 l -2.46094,7.96875 H 471.9043 l 15.64453,-42.65625 h 9.66797 l 15.76172,42.65625 h -11.04493 z m -11.63086,-7.93946 h 9.16992 l -4.59961,-14.79492 z" id="path1149" />
               <path d="m 546.08398,901.14389 h -12.80273 v 34.7168 h -10.2832 v -34.7168 h -12.56836 v -7.93945 h 35.65429 z" id="path1151" />
               <path d="m 576.9043,917.78451 h -16.17188 v 10.16602 h 19.10156 v 7.91016 h -29.38476 v -42.65625 h 29.44336 v 7.93945 h -19.16016 v 8.99414 h 16.17188 z" id="path1153" />
               <path d="m 599.93164,920.80209 h -5.56641 v 15.0586 h -10.2832 v -42.65625 h 16.78711 q 3.69141,0 6.67969,0.84961 2.98828,0.82031 5.09765,2.46093 2.10938,1.61133 3.22266,4.01367 1.14258,2.40235 1.14258,5.56641 0,2.46094 -0.52735,4.39453 -0.52734,1.9043 -1.52343,3.36914 -0.9668,1.43555 -2.34375,2.51953 -1.37696,1.05469 -3.04688,1.84571 l 8.90625,17.19726 v 0.43946 h -11.01562 z m -5.56641,-7.93945 h 6.50391 q 2.92969,0 4.39453,-1.52344 1.49414,-1.55273 1.49414,-4.30664 0,-2.75391 -1.49414,-4.30664 -1.49414,-1.58203 -4.39453,-1.58203 h -6.50391 z" id="path1155" />
               <path d="m 658.84766,935.86069 h -10.22461 l -15.11719,-26.54297 v 26.54297 h -10.2832 v -42.65625 h 10.2832 l 15.08789,26.54296 v -26.54296 h 10.25391 z" id="path1157" />
               <path d="m 676.36719,935.86069 h -10.25391 v -42.65625 h 10.25391 z" id="path1159" />
               <path d="m 683.57422,935.86069 v -42.65625 h 13.74023 q 4.33594,0 7.96875,1.49414 3.63282,1.49414 6.24024,4.21875 2.63672,2.69531 4.10156,6.47461 1.46484,3.75 1.46484,8.26171 v 1.78711 q 0,4.54102 -1.46484,8.29102 -1.46484,3.75 -4.10156,6.44531 -2.60742,2.69531 -6.21094,4.18946 -3.60352,1.49414 -7.88086,1.49414 z m 10.2832,-34.7168 v 26.80664 h 3.57422 q 4.42383,0 6.79688,-3.13477 2.37304,-3.16406 2.37304,-9.375 v -1.8457 q 0,-6.18164 -2.37304,-9.31641 -2.37305,-3.13476 -6.91407,-3.13476 z" id="path1161" />
               <path d="M 746.5918,927.89194 H 732.5 l -2.46094,7.96875 h -10.98633 l 15.64454,-42.65625 h 9.66796 l 15.76172,42.65625 h -11.04492 z m -11.63086,-7.93946 h 9.16992 l -4.59961,-14.79492 z" id="path1163" />
               <path d="m 763.26172,935.86069 v -42.65625 h 13.74023 q 4.33594,0 7.96875,1.49414 3.63282,1.49414 6.24024,4.21875 2.63672,2.69531 4.10156,6.47461 1.46484,3.75 1.46484,8.26171 v 1.78711 q 0,4.54102 -1.46484,8.29102 -1.46484,3.75 -4.10156,6.44531 -2.60742,2.69531 -6.21094,4.18946 -3.60352,1.49414 -7.88086,1.49414 z m 10.2832,-34.7168 v 26.80664 h 3.57422 q 4.42383,0 6.79688,-3.13477 2.37304,-3.16406 2.37304,-9.375 v -1.8457 q 0,-6.18164 -2.37304,-9.31641 -2.37305,-3.13476 -6.91407,-3.13476 z" id="path1165" />
               <path d="m 828.50586,917.78451 h -16.17188 v 10.16602 h 19.10157 v 7.91016 h -29.38477 v -42.65625 h 29.44336 v 7.93945 h -19.16016 v 8.99414 h 16.17188 z" id="path1167" />
            </g>
            <g aria-label="LUÍS EDUARDO MAGALHÃES" transform="matrix(0.2545313,0,0,0.2545313,0.09093147,10.401994)" id="flowRoot1125">
               <path d="m 111.35352,974.93294 h 4.60286 v 30.14646 h 16.56576 v 3.8737 h -21.16862 z" id="path1170" />
               <path d="m 137.02735,974.93294 h 4.62565 v 20.66732 q 0,5.46874 1.98242,7.88414 1.98242,2.3926 6.42578,2.3926 4.42057,0 6.40299,-2.3926 1.98243,-2.4154 1.98243,-7.88414 v -20.66732 h 4.62565 v 21.23698 q 0,6.65368 -3.30404,10.04888 -3.28125,3.3951 -9.70703,3.3951 -6.44857,0 -9.7526,-3.3951 -3.28125,-3.3952 -3.28125,-10.04888 z" id="path1172" />
               <path d="m 174.23112,974.93294 h 4.60287 v 34.02016 h -4.60287 z m 3.57748,-9.2513 h 4.21549 l -5.19531,6.01563 h -3.48633 z" id="path1174" />
               <path d="m 210.88802,976.04948 v 4.48893 q -2.62044,-1.25325 -4.94466,-1.86849 -2.32422,-0.61523 -4.48893,-0.61523 -3.75977,0 -5.81055,1.45833 -2.02799,1.45833 -2.02799,4.14714 0,2.25586 1.3444,3.41797 1.36718,1.13932 5.14974,1.8457 l 2.77994,0.56966 q 5.14974,0.97982 7.5879,3.46354 2.46093,2.46094 2.46093,6.60808 0,4.94469 -3.32682,7.49679 -3.30404,2.552 -9.70703,2.552 -2.41537,0 -5.14974,-0.5468 -2.71159,-0.5469 -5.62826,-1.6179 v -4.7396 q 2.80274,1.5723 5.49154,2.3698 2.6888,0.7976 5.28646,0.7976 3.94206,0 6.08398,-1.5495 2.14193,-1.5495 2.14193,-4.4206 0,-2.50651 -1.54948,-3.91927 -1.52669,-1.41276 -5.03581,-2.11914 l -2.80273,-0.54687 q -5.14974,-1.0254 -7.45117,-3.2129 -2.30144,-2.1875 -2.30144,-6.08398 0,-4.51172 3.16732,-7.10938 3.19011,-2.59765 8.77279,-2.59765 2.39258,0 4.8763,0.43294 2.48373,0.43294 5.08138,1.29883 z" id="path1176" />
               <path d="m 239.97331,974.93294 h 21.51042 v 3.8737 h -16.90755 v 10.07162 h 16.20117 v 3.87369 h -16.20117 v 12.32745 h 17.31771 v 3.8737 h -21.92058 z" id="path1178" />
               <path d="m 276.60743,978.7155 v 26.4551 h 5.55989 q 7.04102,0 10.29948,-3.1901 3.28125,-3.19013 3.28125,-10.07165 0,-6.83593 -3.28125,-10.00325 -3.25846,-3.1901 -10.29948,-3.1901 z m -4.60287,-3.78256 h 9.45638 q 9.88933,0 14.51498,4.12435 4.62565,4.10156 4.62565,12.85156 0,8.79555 -4.64844,12.91995 -4.64844,4.1243 -14.49219,4.1243 h -9.45638 z" id="path1180" />
               <path d="m 309.89193,974.93294 h 4.62565 v 20.66732 q 0,5.46874 1.98242,7.88414 1.98242,2.3926 6.42578,2.3926 4.42057,0 6.403,-2.3926 1.98242,-2.4154 1.98242,-7.88414 v -20.66732 h 4.62565 v 21.23698 q 0,6.65368 -3.30404,10.04888 -3.28125,3.3951 -9.70703,3.3951 -6.44857,0 -9.7526,-3.3951 -3.28125,-3.3952 -3.28125,-10.04888 z" id="path1182" />
               <path d="m 358.46615,979.46745 -6.24349,16.93034 h 12.50976 z m -2.59766,-4.53451 h 5.2181 l 12.96549,34.02016 h -4.78515 l -3.09896,-8.7272 h -15.33529 l -3.09896,8.7272 h -4.85351 z" id="path1184" />
               <path d="m 397.62958,993.0026 q 1.48112,0.50131 2.87109,2.14193 1.41276,1.64063 2.82552,4.51172 l 4.67123,9.29685 h -4.94466 l -4.35222,-8.7272 q -1.6862,-3.41796 -3.28125,-4.53449 -1.57226,-1.11654 -4.30664,-1.11654 h -5.01302 v 14.37823 h -4.60286 v -34.02016 h 10.39062 q 5.83333,0 8.70443,2.43815 2.87109,2.43816 2.87109,7.36003 0,3.21289 -1.5039,5.33203 -1.48112,2.11914 -4.32943,2.93945 z m -11.52995,-14.2871 v 12.07682 h 5.78776 q 3.32682,0 5.01302,-1.52669 1.70899,-1.54948 1.70899,-4.53451 0,-2.98503 -1.70899,-4.48893 -1.6862,-1.52669 -5.01302,-1.52669 z" id="path1186" />
               <path d="m 421.04754,978.7155 v 26.4551 h 5.55989 q 7.04102,0 10.29948,-3.1901 3.28125,-3.19013 3.28125,-10.07165 0,-6.83593 -3.28125,-10.00325 -3.25846,-3.1901 -10.29948,-3.1901 z m -4.60287,-3.78256 h 9.45638 q 9.88933,0 14.51498,4.12435 4.62565,4.10156 4.62565,12.85156 0,8.79555 -4.64844,12.91995 -4.64844,4.1243 -14.49219,4.1243 h -9.45638 z" id="path1188" />
               <path d="m 468.66473,978.05469 q -5.01302,0 -7.97526,3.73698 -2.93945,3.73698 -2.93945,10.18554 0,6.42579 2.93945,10.16279 2.96224,3.737 7.97526,3.737 5.01303,0 7.92969,-3.737 2.93946,-3.737 2.93946,-10.16279 0,-6.44856 -2.93946,-10.18554 -2.91666,-3.73698 -7.92969,-3.73698 z m 0,-3.73698 q 7.15495,0 11.43881,4.80794 4.28385,4.78516 4.28385,12.85156 0,8.04359 -4.28385,12.85159 -4.28386,4.7851 -11.43881,4.7851 -7.17773,0 -11.48437,-4.7851 -4.28386,-4.7852 -4.28386,-12.85159 0,-8.0664 4.28386,-12.85156 4.30664,-4.80794 11.48437,-4.80794 z" id="path1190" />
               <path d="m 511.44467,974.93294 h 6.85873 l 8.68164,23.15105 8.72721,-23.15105 h 6.85872 v 34.02016 h -4.48893 v -29.87302 l -8.77278,23.33332 h -4.62566 l -8.77278,-23.33332 v 29.87302 h -4.46615 z" id="path1192" />
               <path d="m 566.10158,979.46745 -6.24349,16.93034 h 12.50977 z m -2.59765,-4.53451 h 5.2181 l 12.96549,34.02016 h -4.78516 l -3.09895,-8.7272 h -15.33529 l -3.09896,8.7272 h -4.85351 z" id="path1194" />
               <path d="m 612.00847,1004.0996 v -9.13736 h -7.51953 v -3.78255 h 12.07683 v 14.60611 q -2.66602,1.8913 -5.87891,2.8711 -3.21289,0.957 -6.85872,0.957 -7.97526,0 -12.48698,-4.6484 -4.48894,-4.6712 -4.48894,-12.98829 0,-8.33984 4.48894,-12.98828 4.51172,-4.67122 12.48698,-4.67122 3.32682,0 6.31184,0.82031 3.00782,0.82031 5.53711,2.41537 v 4.89908 q -2.55208,-2.16471 -5.42317,-3.25846 -2.8711,-1.09375 -6.03841,-1.09375 -6.24349,0 -9.38803,3.48633 -3.12174,3.48633 -3.12174,10.39062 0,6.88151 3.12174,10.36789 3.14454,3.4863 9.38803,3.4863 2.43815,0 4.35221,-0.4102 1.91406,-0.4329 3.44075,-1.3216 z" id="path1196" />
               <path d="m 639.36721,979.46745 -6.24349,16.93034 h 12.50976 z m -2.59766,-4.53451 h 5.2181 l 12.9655,34.02016 h -4.78516 l -3.09896,-8.7272 h -15.33529 l -3.09895,8.7272 h -4.85352 z" id="path1198" />
               <path d="m 662.89783,974.93294 h 4.60286 v 30.14646 h 16.56576 v 3.8737 h -21.16862 z" id="path1200" />
               <path d="m 691.87439,974.93294 h 4.60286 v 13.94532 h 16.72527 v -13.94532 h 4.60286 v 34.02016 h -4.60286 v -16.20115 h -16.72527 v 16.20115 h -4.60286 z" id="path1202" />
               <path d="m 741.33596,979.46745 -6.24349,16.93034 h 12.50976 z m -2.59766,-4.53451 h 5.2181 l 12.9655,34.02016 h -4.78516 l -3.09896,-8.7272 h -15.33529 l -3.09895,8.7272 h -4.85352 z m 2.50651,-4.94466 -1.29883,-0.75195 q -0.56966,-0.31901 -0.93424,-0.43294 -0.3418,-0.13672 -0.61523,-0.13672 -0.82032,0 -1.27605,0.56966 -0.45573,0.56966 -0.45573,1.59505 v 0.13672 h -2.8483 q 0,-2.30143 1.16211,-3.64583 1.18489,-1.34441 3.14453,-1.34441 0.82031,0 1.5039,0.1823 0.70638,0.18229 1.80013,0.79752 l 1.29883,0.6836 q 0.52409,0.29622 0.91146,0.43294 0.38737,0.13672 0.72917,0.13672 0.72916,0 1.18489,-0.56966 0.45573,-0.59245 0.45573,-1.5267 v -0.13672 h 2.84831 q -0.0456,2.27865 -1.23047,3.64584 -1.16211,1.3444 -3.07617,1.3444 -0.77474,0 -1.45833,-0.18229 -0.66081,-0.18229 -1.84571,-0.79753 z" id="path1204" />
               <path d="m 764.86658,974.93294 h 21.51041 v 3.8737 h -16.90755 v 10.07162 h 16.20117 v 3.87369 h -16.20117 v 12.32745 h 17.31771 v 3.8737 h -21.92057 z" id="path1206" />
               <path d="m 817.79171,976.04948 v 4.48893 q -2.62044,-1.25325 -4.94466,-1.86849 -2.32422,-0.61523 -4.48894,-0.61523 -3.75976,0 -5.81054,1.45833 -2.028,1.45833 -2.028,4.14714 0,2.25586 1.3444,3.41797 1.36719,1.13932 5.14974,1.8457 l 2.77995,0.56966 q 5.14974,0.97982 7.58789,3.46354 2.46094,2.46094 2.46094,6.60808 0,4.94469 -3.32682,7.49679 -3.30404,2.552 -9.70704,2.552 -2.41536,0 -5.14973,-0.5468 -2.71159,-0.5469 -5.62826,-1.6179 v -4.7396 q 2.80273,1.5723 5.49154,2.3698 2.6888,0.7976 5.28645,0.7976 3.94206,0 6.08399,-1.5495 2.14193,-1.5495 2.14193,-4.4206 0,-2.50651 -1.54948,-3.91927 -1.5267,-1.41276 -5.03581,-2.11914 l -2.80273,-0.54687 q -5.14974,-1.0254 -7.45118,-3.2129 -2.30143,-2.1875 -2.30143,-6.08398 0,-4.51172 3.16732,-7.10938 3.1901,-2.59765 8.77279,-2.59765 2.39257,0 4.8763,0.43294 2.48372,0.43294 5.08138,1.29883 z" id="path1208" />
            </g>
         </g>
      </g>
   </g>
   <g id="layer3" transform="translate(-308.52061,-405.6665)" />
   <g id="layer2" transform="translate(-308.52061,-405.6665)">
      <image y="69.307144" x="4.2900262" id="image840" preserveAspectRatio="none" height="86.386459" width="139.60448" />
   </g>
</svg>